<svg width="151" height="40" viewBox="0 0 151 40" fill="none" xmlns="http://www.w3.org/2000/svg">
<path d="M11.2571 0V37.5C10.4365 37.3359 9.61599 37.3359 8.71337 37.5C7.8928 37.6641 7.07221 37.8282 6.3337 38.1564C5.59518 38.4847 5.02083 38.8129 4.52849 39.2232L3.78995 38.8129C3.95407 38.3206 4.03611 37.9103 4.03611 37.4179C4.11817 36.9256 4.1182 36.5153 4.1182 36.023V5.82604C4.1182 4.34902 3.87199 3.28228 3.46171 2.54377C3.05142 1.80526 2.1488 1.47701 1 1.47701V0.410284C2.06674 0.492341 3.05143 0.574383 4.03611 0.574383C5.34902 0.574383 6.66194 0.492341 7.8928 0.410284C9.12365 0.410284 10.1904 0.246171 11.2571 0ZM18.8064 12.3906C21.3501 12.3906 23.4836 13.4573 25.2068 15.5087C26.93 17.5602 27.7506 20.8425 27.7506 25.1094C27.7506 28.5558 27.2582 31.2637 26.1915 33.3151C25.1247 35.3665 23.8118 36.8435 22.0886 37.8282C20.3654 38.8129 18.4781 39.2232 16.5088 39.2232C15.1959 39.2232 13.883 38.977 12.7342 38.5667C11.5854 38.0744 10.6007 37.3359 9.78009 36.2691L10.4365 36.023C11.0109 36.7615 11.7495 37.2538 12.57 37.6641C13.3906 37.9923 14.1291 38.2385 14.9497 38.2385C16.7549 38.2385 18.0678 37.2538 18.9705 35.2024C19.8731 33.151 20.2834 30.0328 20.2834 25.93C20.2834 23.14 20.1193 20.8424 19.791 19.2013C19.4628 17.5602 18.9705 16.3293 18.314 15.6729C17.6576 14.9344 16.837 14.6061 15.9344 14.6061C14.7856 14.6061 13.7188 15.0985 12.8162 16.0011C11.8315 16.9037 11.3392 18.2166 11.1751 19.9398L10.9289 18.2166C11.5033 16.3293 12.488 14.9344 13.965 13.9497C15.2779 12.8829 16.919 12.3906 18.8064 12.3906ZM54.2549 12.5547V33.151C54.2549 34.628 54.5011 35.6947 54.9114 36.4332C55.4037 37.1718 56.2243 37.5 57.3731 37.5V38.5667C56.3884 38.4847 55.3216 38.4026 54.337 38.4026C52.942 38.4026 51.7112 38.4847 50.4803 38.5667C49.2495 38.6488 48.1827 38.8129 47.116 39.1411V34.71C46.2954 36.3512 45.2287 37.5 43.8337 38.2385C42.4387 38.977 40.8796 39.3052 39.1564 39.3052C37.7615 39.3052 36.6948 39.1411 35.7921 38.7308C34.9716 38.4026 34.2331 37.9103 33.7407 37.3359C33.1663 36.6794 32.756 35.8589 32.5919 34.8742C32.3457 33.8895 32.2637 32.5766 32.2637 30.9354V18.4628C32.2637 16.9858 32.0175 15.919 31.6073 15.1805C31.197 14.442 30.2943 14.1138 29.1455 14.1138V13.047C30.2123 13.1291 31.1969 13.2112 32.1816 13.2112C33.5766 13.2112 34.8074 13.1291 36.0383 13.047C37.2691 12.965 38.3359 12.8009 39.3206 12.5547V32.9048C39.3206 33.7254 39.4026 34.4639 39.5667 35.0383C39.7308 35.6947 39.977 36.1871 40.4694 36.5153C40.8797 36.8435 41.5361 37.0077 42.3567 37.0077C43.2593 37.0077 43.9978 36.7615 44.7364 36.2691C45.4749 35.7768 46.0492 35.1203 46.4595 34.2177C46.8698 33.3151 47.116 32.4125 47.116 31.2637V18.3807C47.116 16.9037 46.8698 15.837 46.4595 15.0985C46.0492 14.3599 45.1466 14.0317 43.9978 14.0317V13.047C45.0646 13.1291 46.0493 13.2112 47.0339 13.2112C48.4289 13.2112 49.6598 13.1291 50.8906 13.047C52.1215 12.965 53.2702 12.8009 54.2549 12.5547ZM76.2462 12.3906C77.3129 12.3906 78.1335 12.6368 78.79 13.047C79.4464 13.4573 79.9387 14.0317 80.267 14.7702C80.5952 15.4267 80.7593 16.1652 80.7593 16.9037C80.7593 18.1346 80.4311 19.1192 79.6926 19.8577C78.954 20.5963 78.0514 21.0066 76.9026 21.0066C75.7538 21.0066 74.8512 20.7604 74.1947 20.186C73.5383 19.6116 73.21 18.8731 73.21 17.8884C73.21 16.9858 73.3742 16.2473 73.8665 15.5908C74.3589 14.9344 74.7691 14.442 75.4256 14.0317C74.9332 13.8676 74.523 13.9497 74.0306 14.1138C73.3742 14.1958 72.7998 14.442 72.2254 14.8523C71.651 15.2626 71.1587 15.7549 70.8304 16.4114C70.4201 16.9858 70.0919 17.6422 69.9278 18.3807C69.6816 19.1192 69.5996 19.7757 69.5996 20.4322V33.4792C69.5996 35.0383 70.0098 36.105 70.7483 36.6794C71.4868 37.2538 72.6357 37.5 74.1947 37.5V38.5667C73.4562 38.5667 72.3074 38.4847 70.9125 38.4847C69.4354 38.4026 67.9584 38.4026 66.3993 38.4026C65.0864 38.4026 63.7735 38.4026 62.3786 38.4847C61.0657 38.5667 59.9989 38.5667 59.3425 38.5667V37.5C60.4913 37.5 61.3118 37.2538 61.8042 36.7615C62.2965 36.2691 62.5427 35.3665 62.5427 33.9715V18.4628C62.5427 16.9858 62.2965 15.919 61.8862 15.1805C61.4759 14.442 60.5733 14.1138 59.4245 14.1138V13.047C60.4912 13.1291 61.4759 13.2112 62.4606 13.2112C63.8556 13.2112 65.0864 13.1291 66.3173 13.047C67.5482 12.965 68.6149 12.8009 69.5996 12.5547V17.1499C70.0099 16.2473 70.5022 15.4267 71.1586 14.7702C71.8151 14.0317 72.5536 13.4573 73.4563 13.047C74.2768 12.6368 75.1794 12.3906 76.2462 12.3906ZM91.3446 12.3906C92.7396 12.3906 93.9704 12.5547 94.9551 12.8829C96.0219 13.2111 96.7604 13.5394 97.1707 13.8676C98.3195 14.6061 98.9759 14.1138 99.2221 12.3906H100.289C100.207 13.2932 100.207 14.442 100.125 15.7549C100.043 17.0678 100.043 18.8731 100.043 21.0066H98.9759C98.8118 19.7757 98.4836 18.6269 98.0733 17.396C97.581 16.2472 96.9245 15.2626 96.1039 14.5241C95.2013 13.7855 94.1346 13.3753 92.7396 13.3753C91.7549 13.3753 91.0164 13.6214 90.3599 14.1958C89.7035 14.7702 89.3753 15.5088 89.3753 16.4934C89.3753 17.4781 89.7035 18.2987 90.2779 19.1192C90.8523 19.8578 91.5908 20.5963 92.5755 21.2527C93.4781 21.9092 94.4628 22.6477 95.5295 23.3862C96.5963 24.2068 97.581 25.0273 98.4836 25.8479C99.3862 26.6685 100.043 27.489 100.617 28.4737C101.109 29.4584 101.438 30.5251 101.438 31.8381C101.438 33.3151 101.027 34.628 100.125 35.6947C99.3042 36.7615 98.1553 37.6641 96.7604 38.2385C95.3654 38.8129 93.8063 39.1411 92.0831 39.1411C91.0984 39.1411 90.1959 39.0591 89.4573 38.8129C88.7188 38.6488 87.9803 38.4026 87.488 38.0744C87.0777 37.9103 86.6674 37.6641 86.2571 37.5C85.8468 37.3359 85.5186 37.1718 85.1904 37.0077C84.8621 36.9256 84.5339 37.0077 84.3698 37.3359C84.1236 37.6641 83.9595 38.1564 83.7954 38.7308H82.7287C82.8107 37.6641 82.8107 36.4333 82.8928 34.8742C82.9749 33.3151 82.9748 31.3457 82.9748 28.884H84.0416C84.2057 30.6893 84.6159 32.2483 85.1083 33.5613C85.6006 34.9562 86.3392 36.023 87.2418 36.7615C88.1444 37.5 89.2932 37.9103 90.6882 37.9103C91.2626 37.9103 91.7549 37.8282 92.3293 37.582C92.8217 37.3359 93.314 37.0076 93.6422 36.4332C93.9705 35.9409 94.1345 35.2024 94.1345 34.3818C94.1345 32.9048 93.6422 31.756 92.7396 30.7713C91.837 29.7866 90.6061 28.8019 89.2111 27.6532C88.1444 26.8326 87.1597 25.93 86.2571 25.1094C85.3545 24.2888 84.5339 23.3862 83.9595 22.3195C83.3851 21.3348 83.0569 20.186 83.0569 18.8731C83.0569 17.3961 83.4672 16.1652 84.2057 15.0985C85.0263 14.1138 86.0109 13.2932 87.3238 12.8009C88.4726 12.6368 89.8676 12.3906 91.3446 12.3906ZM111.12 38.895C109.643 38.895 108.412 38.6488 107.428 38.0744C106.443 37.5 105.705 36.7615 105.294 35.8588C104.802 34.9562 104.638 33.8895 104.638 32.7407C104.638 31.3457 104.966 30.1969 105.623 29.2943C106.279 28.3917 107.1 27.6532 108.084 27.1608C109.069 26.5864 110.218 26.1761 111.284 25.7659C112.433 25.4376 113.5 25.0274 114.567 24.6991C115.633 24.3709 116.454 23.9606 117.11 23.4683C117.767 22.9759 118.095 22.4015 118.095 21.663V17.8063C118.095 16.9858 117.931 16.1652 117.685 15.5087C117.439 14.8523 116.946 14.2779 116.372 13.9497C115.798 13.6214 115.059 13.3753 114.156 13.3753C113.5 13.3753 112.844 13.4573 112.187 13.6214C111.531 13.7856 110.956 14.1138 110.546 14.5241C111.449 14.8523 112.187 15.3446 112.679 16.0011C113.172 16.6575 113.418 17.4781 113.418 18.2987C113.418 19.4475 113.008 20.268 112.269 20.9245C111.531 21.581 110.546 21.9092 109.561 21.9092C108.412 21.9092 107.51 21.581 106.853 20.8424C106.279 20.1039 105.951 19.2013 105.951 18.1346C105.951 17.1499 106.197 16.4114 106.689 15.7549C107.182 15.0984 107.838 14.5241 108.659 13.9497C109.561 13.4573 110.71 13.047 111.941 12.7188C113.254 12.3906 114.649 12.3085 116.126 12.3085C117.603 12.3085 118.998 12.4726 120.229 12.8009C121.46 13.1291 122.444 13.7035 123.265 14.5241C124.003 15.2626 124.496 16.1652 124.742 17.314C124.988 18.3807 125.07 19.7757 125.07 21.4989V34.8742C125.07 35.6947 125.152 36.2691 125.316 36.5974C125.48 36.9256 125.726 37.0897 126.137 37.0897C126.465 37.0897 126.711 37.0076 126.957 36.8435C127.203 36.6794 127.532 36.5153 127.86 36.2691L128.352 37.0897C127.696 37.6641 126.875 38.1564 125.973 38.4847C125.07 38.8129 124.085 38.977 122.937 38.977C121.706 38.977 120.721 38.8129 120.065 38.4847C119.408 38.1564 118.834 37.6641 118.505 37.0897C118.177 36.5153 118.013 35.7768 118.013 35.0383C117.193 36.2691 116.29 37.2538 115.141 37.9923C114.074 38.5667 112.761 38.895 111.12 38.895ZM114.649 35.6947C115.305 35.6947 115.88 35.5306 116.454 35.2024C117.028 34.8742 117.521 34.3818 118.013 33.6433V23.5503C117.685 24.0426 117.275 24.4529 116.782 24.8632C116.29 25.2735 115.716 25.6838 115.141 26.0941C114.567 26.5044 113.992 26.9147 113.418 27.4891C112.844 27.9814 112.433 28.5558 112.105 29.2943C111.777 30.0328 111.613 30.8534 111.613 31.9201C111.613 33.233 111.859 34.1357 112.433 34.7921C113.008 35.4486 113.664 35.6947 114.649 35.6947ZM146.487 12.3906C147.554 12.3906 148.374 12.6368 149.031 13.047C149.687 13.4573 150.179 14.0317 150.508 14.7702C150.836 15.4267 151 16.1652 151 16.9037C151 18.1346 150.672 19.1192 149.933 19.8577C149.195 20.5963 148.292 21.0066 147.143 21.0066C145.995 21.0066 145.092 20.7604 144.435 20.186C143.779 19.6116 143.451 18.8731 143.451 17.8884C143.451 16.9858 143.615 16.2473 144.107 15.5908C144.517 15.0164 145.01 14.442 145.666 14.0317C145.174 13.8676 144.764 13.9497 144.271 14.1138C143.615 14.1958 143.04 14.442 142.466 14.8523C141.892 15.2626 141.399 15.7549 141.071 16.4114C140.661 16.9858 140.333 17.6422 140.168 18.3807C139.922 19.1192 139.84 19.7757 139.84 20.4322V33.4792C139.84 35.0383 140.251 36.105 140.989 36.6794C141.728 37.2538 142.876 37.5 144.435 37.5V38.5667C143.697 38.5667 142.548 38.4847 141.153 38.4847C139.676 38.4026 138.199 38.4026 136.64 38.4026C135.327 38.4026 134.014 38.4026 132.619 38.4847C131.306 38.5667 130.24 38.5667 129.583 38.5667V37.5C130.732 37.5 131.552 37.2538 132.045 36.7615C132.537 36.2691 132.783 35.3665 132.783 33.9715V18.4628C132.783 16.9858 132.537 15.919 132.127 15.1805C131.717 14.442 130.814 14.1138 129.665 14.1138V13.047C130.732 13.1291 131.717 13.2112 132.701 13.2112C134.096 13.2112 135.327 13.1291 136.558 13.047C137.789 12.965 138.856 12.8009 139.84 12.5547V17.1499C140.251 16.2473 140.743 15.4267 141.399 14.7702C142.056 14.0317 142.794 13.4573 143.697 13.047C144.6 12.6368 145.502 12.3906 146.487 12.3906Z" fill="white"/>
<path d="M19.067 2.57998C19.613 2.57998 20.0995 2.69898 20.5265 2.93698C20.9605 3.17498 21.3 3.51098 21.545 3.94498C21.79 4.37898 21.9125 4.87948 21.9125 5.44648C21.9125 6.01348 21.79 6.51748 21.545 6.95848C21.3 7.39248 20.9605 7.72848 20.5265 7.96648C20.0995 8.20448 19.613 8.32349 19.067 8.32349C18.311 8.32349 17.7125 8.07148 17.2715 7.56748V10.287H15.959V2.64298H17.2085V3.37798C17.4255 3.11198 17.6915 2.91248 18.0065 2.77948C18.3285 2.64648 18.682 2.57998 19.067 2.57998ZM18.92 7.19999C19.403 7.19999 19.7985 7.03899 20.1065 6.71698C20.4215 6.39499 20.579 5.97148 20.579 5.44648C20.579 4.92148 20.4215 4.49798 20.1065 4.17598C19.7985 3.85398 19.403 3.69298 18.92 3.69298C18.605 3.69298 18.3215 3.76648 18.0695 3.91348C17.8175 4.05348 17.618 4.25648 17.471 4.52248C17.324 4.78848 17.2505 5.09648 17.2505 5.44648C17.2505 5.79648 17.324 6.10448 17.471 6.37048C17.618 6.63648 17.8175 6.84298 18.0695 6.98998C18.3215 7.12998 18.605 7.19999 18.92 7.19999Z" fill="white"/>
<path d="M25.6772 8.32349C25.1102 8.32349 24.5992 8.20098 24.1442 7.95598C23.6892 7.71098 23.3322 7.37148 23.0732 6.93748C22.8212 6.49648 22.6952 5.99948 22.6952 5.44648C22.6952 4.89348 22.8212 4.39998 23.0732 3.96598C23.3322 3.53198 23.6892 3.19248 24.1442 2.94748C24.5992 2.70248 25.1102 2.57998 25.6772 2.57998C26.2512 2.57998 26.7657 2.70248 27.2207 2.94748C27.6757 3.19248 28.0292 3.53198 28.2812 3.96598C28.5402 4.39998 28.6697 4.89348 28.6697 5.44648C28.6697 5.99948 28.5402 6.49648 28.2812 6.93748C28.0292 7.37148 27.6757 7.71098 27.2207 7.95598C26.7657 8.20098 26.2512 8.32349 25.6772 8.32349ZM25.6772 7.19999C26.1602 7.19999 26.5592 7.03899 26.8742 6.71698C27.1892 6.39499 27.3467 5.97148 27.3467 5.44648C27.3467 4.92148 27.1892 4.49798 26.8742 4.17598C26.5592 3.85398 26.1602 3.69298 25.6772 3.69298C25.1942 3.69298 24.7952 3.85398 24.4802 4.17598C24.1722 4.49798 24.0182 4.92148 24.0182 5.44648C24.0182 5.97148 24.1722 6.39499 24.4802 6.71698C24.7952 7.03899 25.1942 7.19999 25.6772 7.19999Z" fill="white"/>
<path d="M38.5175 2.64298L36.449 8.24998H35.189L33.74 4.38598L32.27 8.24998H31.01L28.952 2.64298H30.191L31.6715 6.77998L33.215 2.64298H34.3175L35.8295 6.80098L37.352 2.64298H38.5175Z" fill="white"/>
<path d="M44.5371 5.47798C44.5371 5.56898 44.5301 5.69848 44.5161 5.86648H40.1166C40.1936 6.27948 40.3931 6.60849 40.7151 6.85349C41.0441 7.09149 41.4501 7.21048 41.9331 7.21048C42.5491 7.21048 43.0566 7.00748 43.4556 6.60148L44.1591 7.40998C43.9071 7.71098 43.5886 7.93848 43.2036 8.09248C42.8186 8.24648 42.3846 8.32349 41.9016 8.32349C41.2856 8.32349 40.7431 8.20098 40.2741 7.95598C39.8051 7.71098 39.4411 7.37148 39.1821 6.93748C38.9301 6.49648 38.8041 5.99948 38.8041 5.44648C38.8041 4.90048 38.9266 4.41048 39.1716 3.97648C39.4236 3.53548 39.7701 3.19248 40.2111 2.94748C40.6521 2.70248 41.1491 2.57998 41.7021 2.57998C42.2481 2.57998 42.7346 2.70248 43.1616 2.94748C43.5956 3.18548 43.9316 3.52498 44.1696 3.96598C44.4146 4.39998 44.5371 4.90398 44.5371 5.47798ZM41.7021 3.62998C41.2821 3.62998 40.9251 3.75598 40.6311 4.00798C40.3441 4.25298 40.1691 4.58198 40.1061 4.99498H43.2876C43.2316 4.58898 43.0601 4.25998 42.7731 4.00798C42.4861 3.75598 42.1291 3.62998 41.7021 3.62998Z" fill="white"/>
<path d="M47.0474 3.46198C47.4254 2.87398 48.0904 2.57998 49.0424 2.57998V3.82948C48.9304 3.80848 48.8289 3.79798 48.7379 3.79798C48.2269 3.79798 47.8279 3.94848 47.5409 4.24948C47.2539 4.54348 47.1104 4.97048 47.1104 5.53048V8.24998H45.7979V2.64298H47.0474V3.46198Z" fill="white"/>
<path d="M55.3755 5.47798C55.3755 5.56898 55.3685 5.69848 55.3545 5.86648H50.955C51.032 6.27948 51.2315 6.60849 51.5535 6.85349C51.8825 7.09149 52.2885 7.21048 52.7715 7.21048C53.3875 7.21048 53.895 7.00748 54.294 6.60148L54.9975 7.40998C54.7455 7.71098 54.427 7.93848 54.042 8.09248C53.657 8.24648 53.223 8.32349 52.74 8.32349C52.124 8.32349 51.5815 8.20098 51.1125 7.95598C50.6435 7.71098 50.2795 7.37148 50.0205 6.93748C49.7685 6.49648 49.6425 5.99948 49.6425 5.44648C49.6425 4.90048 49.765 4.41048 50.01 3.97648C50.262 3.53548 50.6085 3.19248 51.0495 2.94748C51.4905 2.70248 51.9875 2.57998 52.5405 2.57998C53.0865 2.57998 53.573 2.70248 54 2.94748C54.434 3.18548 54.77 3.52498 55.008 3.96598C55.253 4.39998 55.3755 4.90398 55.3755 5.47798ZM52.5405 3.62998C52.1205 3.62998 51.7635 3.75598 51.4695 4.00798C51.1825 4.25298 51.0075 4.58198 50.9445 4.99498H54.126C54.07 4.58898 53.8985 4.25998 53.6115 4.00798C53.3245 3.75598 52.9675 3.62998 52.5405 3.62998Z" fill="white"/>
<path d="M62.1277 0.458984V8.24998H60.8677V7.52549C60.6507 7.79149 60.3812 7.99098 60.0592 8.12398C59.7442 8.25698 59.3942 8.32349 59.0092 8.32349C58.4702 8.32349 57.9837 8.20448 57.5497 7.96648C57.1227 7.72848 56.7867 7.39248 56.5417 6.95848C56.2967 6.51748 56.1742 6.01348 56.1742 5.44648C56.1742 4.87948 56.2967 4.37898 56.5417 3.94498C56.7867 3.51098 57.1227 3.17498 57.5497 2.93698C57.9837 2.69898 58.4702 2.57998 59.0092 2.57998C59.3802 2.57998 59.7197 2.64298 60.0277 2.76898C60.3357 2.89498 60.5982 3.08398 60.8152 3.33598V0.458984H62.1277ZM59.1667 7.19999C59.4817 7.19999 59.7652 7.12998 60.0172 6.98998C60.2692 6.84298 60.4687 6.63648 60.6157 6.37048C60.7627 6.10448 60.8362 5.79648 60.8362 5.44648C60.8362 5.09648 60.7627 4.78848 60.6157 4.52248C60.4687 4.25648 60.2692 4.05348 60.0172 3.91348C59.7652 3.76648 59.4817 3.69298 59.1667 3.69298C58.8517 3.69298 58.5682 3.76648 58.3162 3.91348C58.0642 4.05348 57.8647 4.25648 57.7177 4.52248C57.5707 4.78848 57.4972 5.09648 57.4972 5.44648C57.4972 5.79648 57.5707 6.10448 57.7177 6.37048C57.8647 6.63648 58.0642 6.84298 58.3162 6.98998C58.5682 7.12998 58.8517 7.19999 59.1667 7.19999Z" fill="white"/>
<path d="M69.8546 2.57998C70.4006 2.57998 70.8871 2.69898 71.3141 2.93698C71.7481 3.17498 72.0876 3.51098 72.3326 3.94498C72.5776 4.37898 72.7001 4.87948 72.7001 5.44648C72.7001 6.01348 72.5776 6.51748 72.3326 6.95848C72.0876 7.39248 71.7481 7.72848 71.3141 7.96648C70.8871 8.20448 70.4006 8.32349 69.8546 8.32349C69.4696 8.32349 69.1161 8.25698 68.7941 8.12398C68.4791 7.99098 68.2131 7.79149 67.9961 7.52549V8.24998H66.7466V0.458984H68.0591V3.32548C68.2831 3.08048 68.5456 2.89498 68.8466 2.76898C69.1546 2.64298 69.4906 2.57998 69.8546 2.57998ZM69.7076 7.19999C70.1906 7.19999 70.5861 7.03899 70.8941 6.71698C71.2091 6.39499 71.3666 5.97148 71.3666 5.44648C71.3666 4.92148 71.2091 4.49798 70.8941 4.17598C70.5861 3.85398 70.1906 3.69298 69.7076 3.69298C69.3926 3.69298 69.1091 3.76648 68.8571 3.91348C68.6051 4.05348 68.4056 4.25648 68.2586 4.52248C68.1116 4.78848 68.0381 5.09648 68.0381 5.44648C68.0381 5.79648 68.1116 6.10448 68.2586 6.37048C68.4056 6.63648 68.6051 6.84298 68.8571 6.98998C69.1091 7.12998 69.3926 7.19999 69.7076 7.19999Z" fill="white"/>
<path d="M79.041 2.64298L76.416 8.70148C76.171 9.31048 75.8735 9.73749 75.5235 9.98249C75.1735 10.2345 74.75 10.3605 74.253 10.3605C73.973 10.3605 73.6965 10.315 73.4235 10.224C73.1505 10.133 72.9265 10.007 72.7515 9.84598L73.2765 8.87998C73.4025 8.99898 73.5495 9.09349 73.7175 9.16349C73.8925 9.23349 74.0675 9.26848 74.2425 9.26848C74.4735 9.26848 74.6625 9.20898 74.8095 9.08998C74.9635 8.97098 75.1035 8.77149 75.2295 8.49149L75.324 8.27098L72.8775 2.64298H74.2425L76.0065 6.79048L77.781 2.64298H79.041Z" fill="white"/>
</svg>
