<svg width="42" height="42" viewBox="0 0 42 42" fill="none" xmlns="http://www.w3.org/2000/svg">
<path d="M25.3 20.6667C25.1 19.6667 24.8 18.9333 24.3667 18.5C23.9667 18.0667 23.5 17.8667 22.9334 17.8667C22.2334 17.8667 21.6 18.1333 21 18.7333C20.5333 19.1667 20.2667 19.7667 20.1 20.4667V31.5C20.3334 31.7 20.6 31.8333 20.8667 31.9667C21.3667 32.2 21.8333 32.3 22.3333 32.3C23.4333 32.3 24.2667 31.6667 24.8 30.4333C25.3333 29.2 25.6 27.3 25.6 24.7667C25.6 23.0333 25.5 21.6667 25.3 20.6667ZM25.3 20.6667C25.1 19.6667 24.8 18.9333 24.3667 18.5C23.9667 18.0667 23.5 17.8667 22.9334 17.8667C22.2334 17.8667 21.6 18.1333 21 18.7333C20.5333 19.1667 20.2667 19.7667 20.1 20.4667V31.5C20.3334 31.7 20.6 31.8333 20.8667 31.9667C21.3667 32.2 21.8333 32.3 22.3333 32.3C23.4333 32.3 24.2667 31.6667 24.8 30.4333C25.3333 29.2 25.6 27.3 25.6 24.7667C25.6 23.0333 25.5 21.6667 25.3 20.6667ZM25.3 20.6667C25.1 19.6667 24.8 18.9333 24.3667 18.5C23.9667 18.0667 23.5 17.8667 22.9334 17.8667C22.2334 17.8667 21.6 18.1333 21 18.7333C20.5333 19.1667 20.2667 19.7667 20.1 20.4667V31.5C20.3334 31.7 20.6 31.8333 20.8667 31.9667C21.3667 32.2 21.8333 32.3 22.3333 32.3C23.4333 32.3 24.2667 31.6667 24.8 30.4333C25.3333 29.2 25.6 27.3 25.6 24.7667C25.6 23.0333 25.5 21.6667 25.3 20.6667ZM25.3 20.6667C25.1 19.6667 24.8 18.9333 24.3667 18.5C23.9667 18.0667 23.5 17.8667 22.9334 17.8667C22.2334 17.8667 21.6 18.1333 21 18.7333C20.5333 19.1667 20.2667 19.7667 20.1 20.4667V31.5C20.3334 31.7 20.6 31.8333 20.8667 31.9667C21.3667 32.2 21.8333 32.3 22.3333 32.3C23.4333 32.3 24.2667 31.6667 24.8 30.4333C25.3333 29.2 25.6 27.3 25.6 24.7667C25.6 23.0333 25.5 21.6667 25.3 20.6667ZM22 3.43333C12.3 3.43333 4.43335 11.3333 4.43335 21C4.43335 30.6667 12.3 38.5667 22 38.5667C31.7 38.5667 39.5667 30.7 39.5667 21C39.5667 11.3 31.7 3.43333 22 3.43333ZM29.2 29.3333C28.5667 30.6 27.7333 31.5 26.7 32.0667C25.6667 32.6333 24.5334 32.9 23.2667 32.9C22.4334 32.9 21.7 32.7667 21 32.4667C20.6333 32.3 20.2667 32.1 19.9334 31.8333C19.5 31.7667 19.0334 31.7667 18.6 31.8667C18.0667 31.9333 17.6 32.0667 17.1667 32.2667C16.7333 32.4667 16.3667 32.6667 16.0667 32.9333L15.6 32.6667C15.6667 32.4 15.7334 32.1 15.7667 31.8333C15.8 31.5667 15.8 31.2667 15.8 31V12.6C15.8 11.7 15.6667 11.0333 15.4 10.6C15.1333 10.1667 14.6333 9.96666 13.9 9.96666V9.33333C14.5333 9.4 15.1667 9.43333 15.7667 9.43333C16.6 9.43333 17.3667 9.4 18.1 9.33333C18.8334 9.26667 19.5333 9.16667 20.1333 9V19.3667C20.5 18.5333 21.0333 17.9 21.7333 17.4C22.6 16.8 23.6 16.5 24.7333 16.5C26.3 16.5 27.6 17.1333 28.6333 18.4C29.6667 19.6667 30.1667 21.6333 30.1667 24.2667C30.1333 26.4 29.8 28.0667 29.2 29.3333ZM24.3667 18.5C23.9667 18.0667 23.5 17.8667 22.9334 17.8667C22.2334 17.8667 21.6 18.1333 21 18.7333C20.5333 19.1667 20.2667 19.7667 20.1 20.4667V31.5C20.3334 31.7 20.6 31.8333 20.8667 31.9667C21.3667 32.2 21.8333 32.3 22.3333 32.3C23.4333 32.3 24.2667 31.6667 24.8 30.4333C25.3333 29.2 25.6 27.3 25.6 24.7667C25.6 23.0333 25.5 21.7 25.3 20.6667C25.0667 19.6333 24.7667 18.9333 24.3667 18.5ZM25.3 20.6667C25.1 19.6667 24.8 18.9333 24.3667 18.5C23.9667 18.0667 23.5 17.8667 22.9334 17.8667C22.2334 17.8667 21.6 18.1333 21 18.7333C20.5333 19.1667 20.2667 19.7667 20.1 20.4667V31.5C20.3334 31.7 20.6 31.8333 20.8667 31.9667C21.3667 32.2 21.8333 32.3 22.3333 32.3C23.4333 32.3 24.2667 31.6667 24.8 30.4333C25.3333 29.2 25.6 27.3 25.6 24.7667C25.6 23.0333 25.5 21.6667 25.3 20.6667ZM25.3 20.6667C25.1 19.6667 24.8 18.9333 24.3667 18.5C23.9667 18.0667 23.5 17.8667 22.9334 17.8667C22.2334 17.8667 21.6 18.1333 21 18.7333C20.5333 19.1667 20.2667 19.7667 20.1 20.4667V31.5C20.3334 31.7 20.6 31.8333 20.8667 31.9667C21.3667 32.2 21.8333 32.3 22.3333 32.3C23.4333 32.3 24.2667 31.6667 24.8 30.4333C25.3333 29.2 25.6 27.3 25.6 24.7667C25.6 23.0333 25.5 21.6667 25.3 20.6667ZM25.3 20.6667C25.1 19.6667 24.8 18.9333 24.3667 18.5C23.9667 18.0667 23.5 17.8667 22.9334 17.8667C22.2334 17.8667 21.6 18.1333 21 18.7333C20.5333 19.1667 20.2667 19.7667 20.1 20.4667V31.5C20.3334 31.7 20.6 31.8333 20.8667 31.9667C21.3667 32.2 21.8333 32.3 22.3333 32.3C23.4333 32.3 24.2667 31.6667 24.8 30.4333C25.3333 29.2 25.6 27.3 25.6 24.7667C25.6 23.0333 25.5 21.6667 25.3 20.6667ZM25.3 20.6667C25.1 19.6667 24.8 18.9333 24.3667 18.5C23.9667 18.0667 23.5 17.8667 22.9334 17.8667C22.2334 17.8667 21.6 18.1333 21 18.7333C20.5333 19.1667 20.2667 19.7667 20.1 20.4667V31.5C20.3334 31.7 20.6 31.8333 20.8667 31.9667C21.3667 32.2 21.8333 32.3 22.3333 32.3C23.4333 32.3 24.2667 31.6667 24.8 30.4333C25.3333 29.2 25.6 27.3 25.6 24.7667C25.6 23.0333 25.5 21.6667 25.3 20.6667ZM22 3.43333C12.3 3.43333 4.43335 11.3333 4.43335 21C4.43335 30.6667 12.3 38.5667 22 38.5667C31.7 38.5667 39.5667 30.7 39.5667 21C39.5667 11.3 31.7 3.43333 22 3.43333ZM29.2 29.3333C28.5667 30.6 27.7333 31.5 26.7 32.0667C25.6667 32.6333 24.5334 32.9 23.2667 32.9C22.4334 32.9 21.7 32.7667 21 32.4667C20.6333 32.3 20.2667 32.1 19.9334 31.8333C19.5 31.7667 19.0334 31.7667 18.6 31.8667C18.0667 31.9333 17.6 32.0667 17.1667 32.2667C16.7333 32.4667 16.3667 32.6667 16.0667 32.9333L15.6 32.6667C15.6667 32.4 15.7334 32.1 15.7667 31.8333C15.8 31.5667 15.8 31.2667 15.8 31V12.6C15.8 11.7 15.6667 11.0333 15.4 10.6C15.1333 10.1667 14.6333 9.96666 13.9 9.96666V9.33333C14.5333 9.4 15.1667 9.43333 15.7667 9.43333C16.6 9.43333 17.3667 9.4 18.1 9.33333C18.8334 9.26667 19.5333 9.16667 20.1333 9V19.3667C20.5 18.5333 21.0333 17.9 21.7333 17.4C22.6 16.8 23.6 16.5 24.7333 16.5C26.3 16.5 27.6 17.1333 28.6333 18.4C29.6667 19.6667 30.1667 21.6333 30.1667 24.2667C30.1333 26.4 29.8 28.0667 29.2 29.3333ZM24.3667 18.5C23.9667 18.0667 23.5 17.8667 22.9334 17.8667C22.2334 17.8667 21.6 18.1333 21 18.7333C20.5333 19.1667 20.2667 19.7667 20.1 20.4667V31.5C20.3334 31.7 20.6 31.8333 20.8667 31.9667C21.3667 32.2 21.8333 32.3 22.3333 32.3C23.4333 32.3 24.2667 31.6667 24.8 30.4333C25.3333 29.2 25.6 27.3 25.6 24.7667C25.6 23.0333 25.5 21.7 25.3 20.6667C25.0667 19.6333 24.7667 18.9333 24.3667 18.5ZM25.3 20.6667C25.1 19.6667 24.8 18.9333 24.3667 18.5C23.9667 18.0667 23.5 17.8667 22.9334 17.8667C22.2334 17.8667 21.6 18.1333 21 18.7333C20.5333 19.1667 20.2667 19.7667 20.1 20.4667V31.5C20.3334 31.7 20.6 31.8333 20.8667 31.9667C21.3667 32.2 21.8333 32.3 22.3333 32.3C23.4333 32.3 24.2667 31.6667 24.8 30.4333C25.3333 29.2 25.6 27.3 25.6 24.7667C25.6 23.0333 25.5 21.6667 25.3 20.6667ZM25.3 20.6667C25.1 19.6667 24.8 18.9333 24.3667 18.5C23.9667 18.0667 23.5 17.8667 22.9334 17.8667C22.2334 17.8667 21.6 18.1333 21 18.7333C20.5333 19.1667 20.2667 19.7667 20.1 20.4667V31.5C20.3334 31.7 20.6 31.8333 20.8667 31.9667C21.3667 32.2 21.8333 32.3 22.3333 32.3C23.4333 32.3 24.2667 31.6667 24.8 30.4333C25.3333 29.2 25.6 27.3 25.6 24.7667C25.6 23.0333 25.5 21.6667 25.3 20.6667ZM25.3 20.6667C25.1 19.6667 24.8 18.9333 24.3667 18.5C23.9667 18.0667 23.5 17.8667 22.9334 17.8667C22.2334 17.8667 21.6 18.1333 21 18.7333C20.5333 19.1667 20.2667 19.7667 20.1 20.4667V31.5C20.3334 31.7 20.6 31.8333 20.8667 31.9667C21.3667 32.2 21.8333 32.3 22.3333 32.3C23.4333 32.3 24.2667 31.6667 24.8 30.4333C25.3333 29.2 25.6 27.3 25.6 24.7667C25.6 23.0333 25.5 21.6667 25.3 20.6667ZM25.3 20.6667C25.1 19.6667 24.8 18.9333 24.3667 18.5C23.9667 18.0667 23.5 17.8667 22.9334 17.8667C22.2334 17.8667 21.6 18.1333 21 18.7333C20.5333 19.1667 20.2667 19.7667 20.1 20.4667V31.5C20.3334 31.7 20.6 31.8333 20.8667 31.9667C21.3667 32.2 21.8333 32.3 22.3333 32.3C23.4333 32.3 24.2667 31.6667 24.8 30.4333C25.3333 29.2 25.6 27.3 25.6 24.7667C25.6 23.0333 25.5 21.6667 25.3 20.6667ZM22 3.43333C12.3 3.43333 4.43335 11.3333 4.43335 21C4.43335 30.6667 12.3 38.5667 22 38.5667C31.7 38.5667 39.5667 30.7 39.5667 21C39.5667 11.3 31.7 3.43333 22 3.43333ZM29.2 29.3333C28.5667 30.6 27.7333 31.5 26.7 32.0667C25.6667 32.6333 24.5334 32.9 23.2667 32.9C22.4334 32.9 21.7 32.7667 21 32.4667C20.6333 32.3 20.2667 32.1 19.9334 31.8333C19.5 31.7667 19.0334 31.7667 18.6 31.8667C18.0667 31.9333 17.6 32.0667 17.1667 32.2667C16.7333 32.4667 16.3667 32.6667 16.0667 32.9333L15.6 32.6667C15.6667 32.4 15.7334 32.1 15.7667 31.8333C15.8 31.5667 15.8 31.2667 15.8 31V12.6C15.8 11.7 15.6667 11.0333 15.4 10.6C15.1333 10.1667 14.6333 9.96666 13.9 9.96666V9.33333C14.5333 9.4 15.1667 9.43333 15.7667 9.43333C16.6 9.43333 17.3667 9.4 18.1 9.33333C18.8334 9.26667 19.5333 9.16667 20.1333 9V19.3667C20.5 18.5333 21.0333 17.9 21.7333 17.4C22.6 16.8 23.6 16.5 24.7333 16.5C26.3 16.5 27.6 17.1333 28.6333 18.4C29.6667 19.6667 30.1667 21.6333 30.1667 24.2667C30.1333 26.4 29.8 28.0667 29.2 29.3333ZM24.3667 18.5C23.9667 18.0667 23.5 17.8667 22.9334 17.8667C22.2334 17.8667 21.6 18.1333 21 18.7333C20.5333 19.1667 20.2667 19.7667 20.1 20.4667V31.5C20.3334 31.7 20.6 31.8333 20.8667 31.9667C21.3667 32.2 21.8333 32.3 22.3333 32.3C23.4333 32.3 24.2667 31.6667 24.8 30.4333C25.3333 29.2 25.6 27.3 25.6 24.7667C25.6 23.0333 25.5 21.7 25.3 20.6667C25.0667 19.6333 24.7667 18.9333 24.3667 18.5ZM22 3.43333C12.3 3.43333 4.43335 11.3333 4.43335 21C4.43335 30.6667 12.3 38.5667 22 38.5667C31.7 38.5667 39.5667 30.7 39.5667 21C39.5667 11.3 31.7 3.43333 22 3.43333ZM29.2 29.3333C28.5667 30.6 27.7333 31.5 26.7 32.0667C25.6667 32.6333 24.5334 32.9 23.2667 32.9C22.4334 32.9 21.7 32.7667 21 32.4667C20.6333 32.3 20.2667 32.1 19.9334 31.8333C19.5 31.7667 19.0334 31.7667 18.6 31.8667C18.0667 31.9333 17.6 32.0667 17.1667 32.2667C16.7333 32.4667 16.3667 32.6667 16.0667 32.9333L15.6 32.6667C15.6667 32.4 15.7334 32.1 15.7667 31.8333C15.8 31.5667 15.8 31.2667 15.8 31V12.6C15.8 11.7 15.6667 11.0333 15.4 10.6C15.1333 10.1667 14.6333 9.96666 13.9 9.96666V9.33333C14.5333 9.4 15.1667 9.43333 15.7667 9.43333C16.6 9.43333 17.3667 9.4 18.1 9.33333C18.8334 9.26667 19.5333 9.16667 20.1333 9V19.3667C20.5 18.5333 21.0333 17.9 21.7333 17.4C22.6 16.8 23.6 16.5 24.7333 16.5C26.3 16.5 27.6 17.1333 28.6333 18.4C29.6667 19.6667 30.1667 21.6333 30.1667 24.2667C30.1333 26.4 29.8 28.0667 29.2 29.3333ZM24.3667 18.5C23.9667 18.0667 23.5 17.8667 22.9334 17.8667C22.2334 17.8667 21.6 18.1333 21 18.7333C20.5333 19.1667 20.2667 19.7667 20.1 20.4667V31.5C20.3334 31.7 20.6 31.8333 20.8667 31.9667C21.3667 32.2 21.8333 32.3 22.3333 32.3C23.4333 32.3 24.2667 31.6667 24.8 30.4333C25.3333 29.2 25.6 27.3 25.6 24.7667C25.6 23.0333 25.5 21.7 25.3 20.6667C25.0667 19.6333 24.7667 18.9333 24.3667 18.5ZM22 1C10.9667 1 2 9.96667 2 21C2 32.0333 10.9667 41 22 41C33.0333 41 42 32.0333 42 21C42 9.96667 33.0333 1 22 1ZM22 39.5C11.8 39.5 3.5 31.2 3.5 21C3.5 10.8 11.8 2.5 22 2.5C32.2 2.5 40.5 10.8 40.5 21C40.5 31.2 32.2 39.5 22 39.5ZM22 3.43333C12.3 3.43333 4.43335 11.3333 4.43335 21C4.43335 30.6667 12.3 38.5667 22 38.5667C31.7 38.5667 39.5667 30.7 39.5667 21C39.5667 11.3 31.7 3.43333 22 3.43333ZM29.2 29.3333C28.5667 30.6 27.7333 31.5 26.7 32.0667C25.6667 32.6333 24.5334 32.9 23.2667 32.9C22.4334 32.9 21.7 32.7667 21 32.4667C20.6333 32.3 20.2667 32.1 19.9334 31.8333C19.5 31.7667 19.0334 31.7667 18.6 31.8667C18.0667 31.9333 17.6 32.0667 17.1667 32.2667C16.7333 32.4667 16.3667 32.6667 16.0667 32.9333L15.6 32.6667C15.6667 32.4 15.7334 32.1 15.7667 31.8333C15.8 31.5667 15.8 31.2667 15.8 31V12.6C15.8 11.7 15.6667 11.0333 15.4 10.6C15.1333 10.1667 14.6333 9.96666 13.9 9.96666V9.33333C14.5333 9.4 15.1667 9.43333 15.7667 9.43333C16.6 9.43333 17.3667 9.4 18.1 9.33333C18.8334 9.26667 19.5333 9.16667 20.1333 9V19.3667C20.5 18.5333 21.0333 17.9 21.7333 17.4C22.6 16.8 23.6 16.5 24.7333 16.5C26.3 16.5 27.6 17.1333 28.6333 18.4C29.6667 19.6667 30.1667 21.6333 30.1667 24.2667C30.1333 26.4 29.8 28.0667 29.2 29.3333ZM24.3667 18.5C23.9667 18.0667 23.5 17.8667 22.9334 17.8667C22.2334 17.8667 21.6 18.1333 21 18.7333C20.5333 19.1667 20.2667 19.7667 20.1 20.4667V31.5C20.3334 31.7 20.6 31.8333 20.8667 31.9667C21.3667 32.2 21.8333 32.3 22.3333 32.3C23.4333 32.3 24.2667 31.6667 24.8 30.4333C25.3333 29.2 25.6 27.3 25.6 24.7667C25.6 23.0333 25.5 21.7 25.3 20.6667C25.0667 19.6333 24.7667 18.9333 24.3667 18.5ZM25.3 20.6667C25.1 19.6667 24.8 18.9333 24.3667 18.5C23.9667 18.0667 23.5 17.8667 22.9334 17.8667C22.2334 17.8667 21.6 18.1333 21 18.7333C20.5333 19.1667 20.2667 19.7667 20.1 20.4667V31.5C20.3334 31.7 20.6 31.8333 20.8667 31.9667C21.3667 32.2 21.8333 32.3 22.3333 32.3C23.4333 32.3 24.2667 31.6667 24.8 30.4333C25.3333 29.2 25.6 27.3 25.6 24.7667C25.6 23.0333 25.5 21.6667 25.3 20.6667ZM25.3 20.6667C25.1 19.6667 24.8 18.9333 24.3667 18.5C23.9667 18.0667 23.5 17.8667 22.9334 17.8667C22.2334 17.8667 21.6 18.1333 21 18.7333C20.5333 19.1667 20.2667 19.7667 20.1 20.4667V31.5C20.3334 31.7 20.6 31.8333 20.8667 31.9667C21.3667 32.2 21.8333 32.3 22.3333 32.3C23.4333 32.3 24.2667 31.6667 24.8 30.4333C25.3333 29.2 25.6 27.3 25.6 24.7667C25.6 23.0333 25.5 21.6667 25.3 20.6667ZM22 3.43333C12.3 3.43333 4.43335 11.3333 4.43335 21C4.43335 30.6667 12.3 38.5667 22 38.5667C31.7 38.5667 39.5667 30.7 39.5667 21C39.5667 11.3 31.7 3.43333 22 3.43333ZM29.2 29.3333C28.5667 30.6 27.7333 31.5 26.7 32.0667C25.6667 32.6333 24.5334 32.9 23.2667 32.9C22.4334 32.9 21.7 32.7667 21 32.4667C20.6333 32.3 20.2667 32.1 19.9334 31.8333C19.5 31.7667 19.0334 31.7667 18.6 31.8667C18.0667 31.9333 17.6 32.0667 17.1667 32.2667C16.7333 32.4667 16.3667 32.6667 16.0667 32.9333L15.6 32.6667C15.6667 32.4 15.7334 32.1 15.7667 31.8333C15.8 31.5667 15.8 31.2667 15.8 31V12.6C15.8 11.7 15.6667 11.0333 15.4 10.6C15.1333 10.1667 14.6333 9.96666 13.9 9.96666V9.33333C14.5333 9.4 15.1667 9.43333 15.7667 9.43333C16.6 9.43333 17.3667 9.4 18.1 9.33333C18.8334 9.26667 19.5333 9.16667 20.1333 9V19.3667C20.5 18.5333 21.0333 17.9 21.7333 17.4C22.6 16.8 23.6 16.5 24.7333 16.5C26.3 16.5 27.6 17.1333 28.6333 18.4C29.6667 19.6667 30.1667 21.6333 30.1667 24.2667C30.1333 26.4 29.8 28.0667 29.2 29.3333ZM24.3667 18.5C23.9667 18.0667 23.5 17.8667 22.9334 17.8667C22.2334 17.8667 21.6 18.1333 21 18.7333C20.5333 19.1667 20.2667 19.7667 20.1 20.4667V31.5C20.3334 31.7 20.6 31.8333 20.8667 31.9667C21.3667 32.2 21.8333 32.3 22.3333 32.3C23.4333 32.3 24.2667 31.6667 24.8 30.4333C25.3333 29.2 25.6 27.3 25.6 24.7667C25.6 23.0333 25.5 21.7 25.3 20.6667C25.0667 19.6333 24.7667 18.9333 24.3667 18.5ZM25.3 20.6667C25.1 19.6667 24.8 18.9333 24.3667 18.5C23.9667 18.0667 23.5 17.8667 22.9334 17.8667C22.2334 17.8667 21.6 18.1333 21 18.7333C20.5333 19.1667 20.2667 19.7667 20.1 20.4667V31.5C20.3334 31.7 20.6 31.8333 20.8667 31.9667C21.3667 32.2 21.8333 32.3 22.3333 32.3C23.4333 32.3 24.2667 31.6667 24.8 30.4333C25.3333 29.2 25.6 27.3 25.6 24.7667C25.6 23.0333 25.5 21.6667 25.3 20.6667ZM25.3 20.6667C25.1 19.6667 24.8 18.9333 24.3667 18.5C23.9667 18.0667 23.5 17.8667 22.9334 17.8667C22.2334 17.8667 21.6 18.1333 21 18.7333C20.5333 19.1667 20.2667 19.7667 20.1 20.4667V31.5C20.3334 31.7 20.6 31.8333 20.8667 31.9667C21.3667 32.2 21.8333 32.3 22.3333 32.3C23.4333 32.3 24.2667 31.6667 24.8 30.4333C25.3333 29.2 25.6 27.3 25.6 24.7667C25.6 23.0333 25.5 21.6667 25.3 20.6667ZM22 3.43333C12.3 3.43333 4.43335 11.3333 4.43335 21C4.43335 30.6667 12.3 38.5667 22 38.5667C31.7 38.5667 39.5667 30.7 39.5667 21C39.5667 11.3 31.7 3.43333 22 3.43333ZM29.2 29.3333C28.5667 30.6 27.7333 31.5 26.7 32.0667C25.6667 32.6333 24.5334 32.9 23.2667 32.9C22.4334 32.9 21.7 32.7667 21 32.4667C20.6333 32.3 20.2667 32.1 19.9334 31.8333C19.5 31.7667 19.0334 31.7667 18.6 31.8667C18.0667 31.9333 17.6 32.0667 17.1667 32.2667C16.7333 32.4667 16.3667 32.6667 16.0667 32.9333L15.6 32.6667C15.6667 32.4 15.7334 32.1 15.7667 31.8333C15.8 31.5667 15.8 31.2667 15.8 31V12.6C15.8 11.7 15.6667 11.0333 15.4 10.6C15.1333 10.1667 14.6333 9.96666 13.9 9.96666V9.33333C14.5333 9.4 15.1667 9.43333 15.7667 9.43333C16.6 9.43333 17.3667 9.4 18.1 9.33333C18.8334 9.26667 19.5333 9.16667 20.1333 9V19.3667C20.5 18.5333 21.0333 17.9 21.7333 17.4C22.6 16.8 23.6 16.5 24.7333 16.5C26.3 16.5 27.6 17.1333 28.6333 18.4C29.6667 19.6667 30.1667 21.6333 30.1667 24.2667C30.1333 26.4 29.8 28.0667 29.2 29.3333ZM24.3667 18.5C23.9667 18.0667 23.5 17.8667 22.9334 17.8667C22.2334 17.8667 21.6 18.1333 21 18.7333C20.5333 19.1667 20.2667 19.7667 20.1 20.4667V31.5C20.3334 31.7 20.6 31.8333 20.8667 31.9667C21.3667 32.2 21.8333 32.3 22.3333 32.3C23.4333 32.3 24.2667 31.6667 24.8 30.4333C25.3333 29.2 25.6 27.3 25.6 24.7667C25.6 23.0333 25.5 21.7 25.3 20.6667C25.0667 19.6333 24.7667 18.9333 24.3667 18.5ZM25.3 20.6667C25.1 19.6667 24.8 18.9333 24.3667 18.5C23.9667 18.0667 23.5 17.8667 22.9334 17.8667C22.2334 17.8667 21.6 18.1333 21 18.7333C20.5333 19.1667 20.2667 19.7667 20.1 20.4667V31.5C20.3334 31.7 20.6 31.8333 20.8667 31.9667C21.3667 32.2 21.8333 32.3 22.3333 32.3C23.4333 32.3 24.2667 31.6667 24.8 30.4333C25.3333 29.2 25.6 27.3 25.6 24.7667C25.6 23.0333 25.5 21.6667 25.3 20.6667ZM25.3 20.6667C25.1 19.6667 24.8 18.9333 24.3667 18.5C23.9667 18.0667 23.5 17.8667 22.9334 17.8667C22.2334 17.8667 21.6 18.1333 21 18.7333C20.5333 19.1667 20.2667 19.7667 20.1 20.4667V31.5C20.3334 31.7 20.6 31.8333 20.8667 31.9667C21.3667 32.2 21.8333 32.3 22.3333 32.3C23.4333 32.3 24.2667 31.6667 24.8 30.4333C25.3333 29.2 25.6 27.3 25.6 24.7667C25.6 23.0333 25.5 21.6667 25.3 20.6667ZM25.3 20.6667C25.1 19.6667 24.8 18.9333 24.3667 18.5C23.9667 18.0667 23.5 17.8667 22.9334 17.8667C22.2334 17.8667 21.6 18.1333 21 18.7333C20.5333 19.1667 20.2667 19.7667 20.1 20.4667V31.5C20.3334 31.7 20.6 31.8333 20.8667 31.9667C21.3667 32.2 21.8333 32.3 22.3333 32.3C23.4333 32.3 24.2667 31.6667 24.8 30.4333C25.3333 29.2 25.6 27.3 25.6 24.7667C25.6 23.0333 25.5 21.6667 25.3 20.6667ZM25.3 20.6667C25.1 19.6667 24.8 18.9333 24.3667 18.5C23.9667 18.0667 23.5 17.8667 22.9334 17.8667C22.2334 17.8667 21.6 18.1333 21 18.7333C20.5333 19.1667 20.2667 19.7667 20.1 20.4667V31.5C20.3334 31.7 20.6 31.8333 20.8667 31.9667C21.3667 32.2 21.8333 32.3 22.3333 32.3C23.4333 32.3 24.2667 31.6667 24.8 30.4333C25.3333 29.2 25.6 27.3 25.6 24.7667C25.6 23.0333 25.5 21.6667 25.3 20.6667Z" fill="white"/>
</svg>
