<svg width="171" height="45" viewBox="0 0 171 45" fill="none" xmlns="http://www.w3.org/2000/svg">
<path d="M12.6247 0V42.5C11.6947 42.314 10.7648 42.314 9.74181 42.5C8.81184 42.686 7.88184 42.872 7.04486 43.244C6.20788 43.616 5.55694 43.9879 4.99895 44.4529L4.16195 43.9879C4.34794 43.43 4.44093 42.965 4.44093 42.407C4.53393 41.849 4.53396 41.384 4.53396 40.826V6.60285C4.53396 4.92889 4.25492 3.71992 3.78993 2.88294C3.32494 2.04596 2.30197 1.67395 1 1.67395V0.464989C2.20897 0.557987 3.32496 0.650967 4.44093 0.650967C5.92889 0.650967 7.41687 0.557987 8.81184 0.464989C10.2068 0.464989 11.4158 0.278993 12.6247 0ZM21.1805 14.0427C24.0635 14.0427 26.4814 15.2516 28.4343 17.5766C30.3873 19.9015 31.3173 23.6214 31.3173 28.4573C31.3173 32.3632 30.7593 35.4322 29.5503 37.7571C28.3414 40.0821 26.8534 41.756 24.9004 42.872C22.9475 43.988 20.8086 44.4529 18.5766 44.4529C17.0886 44.4529 15.6007 44.1739 14.2987 43.709C12.9968 43.151 11.8808 42.314 10.9508 41.105L11.6947 40.826C12.3457 41.663 13.1827 42.221 14.1127 42.686C15.0427 43.058 15.8796 43.337 16.8096 43.337C18.8556 43.337 20.3436 42.221 21.3665 39.896C22.3895 37.5711 22.8545 34.0372 22.8545 29.3873C22.8545 26.2254 22.6685 23.6214 22.2965 21.7615C21.9245 19.9015 21.3665 18.5066 20.6226 17.7626C19.8786 16.9256 18.9486 16.5536 17.9256 16.5536C16.6236 16.5536 15.4147 17.1116 14.3917 18.1346C13.2757 19.1575 12.7177 20.6455 12.5317 22.5985L12.2528 20.6455C12.9038 18.5065 14.0197 16.9256 15.6937 15.8096C17.1817 14.6007 19.0416 14.0427 21.1805 14.0427ZM61.3556 14.2287V37.5711C61.3556 39.2451 61.6346 40.454 62.0996 41.291C62.6575 42.128 63.5875 42.5 64.8895 42.5V43.709C63.7735 43.616 62.5645 43.523 61.4486 43.523C59.8676 43.523 58.4727 43.616 57.0777 43.709C55.6827 43.802 54.4737 43.9879 53.2648 44.3599V39.3381C52.3348 41.198 51.1258 42.5 49.5449 43.337C47.9639 44.174 46.1969 44.5459 44.244 44.5459C42.663 44.5459 41.4541 44.3599 40.4311 43.8949C39.5011 43.5229 38.6641 42.965 38.1061 42.314C37.4552 41.57 36.9901 40.64 36.8041 39.5241C36.5252 38.4081 36.4322 36.9201 36.4322 35.0601V20.9245C36.4322 19.2505 36.1532 18.0416 35.6882 17.2046C35.2232 16.3676 34.2003 15.9956 32.8983 15.9956V14.7866C34.1073 14.8796 35.2232 14.9726 36.3392 14.9726C37.9201 14.9726 39.3151 14.8796 40.7101 14.7866C42.105 14.6936 43.314 14.5076 44.43 14.2287V37.2921C44.43 38.2221 44.523 39.0591 44.709 39.71C44.895 40.454 45.174 41.012 45.732 41.384C46.197 41.756 46.9409 41.942 47.8709 41.942C48.8939 41.942 49.7309 41.663 50.5679 41.105C51.4048 40.547 52.0558 39.803 52.5208 38.7801C52.9858 37.7571 53.2648 36.7341 53.2648 35.4322V20.8315C53.2648 19.1575 52.9858 17.9486 52.5208 17.1116C52.0558 16.2746 51.0328 15.9026 49.7309 15.9026V14.7866C50.9398 14.8796 52.0558 14.9726 53.1718 14.9726C54.7528 14.9726 56.1477 14.8796 57.5427 14.7866C58.9377 14.6936 60.2396 14.5076 61.3556 14.2287ZM86.279 14.0427C87.488 14.0427 88.418 14.3217 89.1619 14.7866C89.9059 15.2516 90.4639 15.9026 90.8359 16.7396C91.2079 17.4836 91.3939 18.3206 91.3939 19.1576C91.3939 20.5525 91.0219 21.6685 90.1849 22.5054C89.3479 23.3424 88.3249 23.8074 87.023 23.8074C85.721 23.8074 84.698 23.5284 83.954 22.8775C83.2101 22.2265 82.8381 21.3895 82.8381 20.2735C82.8381 19.2505 83.0241 18.4136 83.5821 17.6696C84.1401 16.9256 84.605 16.3676 85.349 15.9026C84.791 15.7166 84.326 15.8096 83.768 15.9956C83.0241 16.0886 82.3731 16.3676 81.7221 16.8326C81.0711 17.2976 80.5131 17.8556 80.1412 18.5996C79.6762 19.2505 79.3041 19.9945 79.1181 20.8315C78.8391 21.6685 78.7462 22.4125 78.7462 23.1564V37.9431C78.7462 39.71 79.2111 40.919 80.0481 41.57C80.8851 42.221 82.1871 42.5 83.954 42.5V43.709C83.1171 43.709 81.8151 43.616 80.2341 43.616C78.5602 43.523 76.8862 43.523 75.1192 43.523C73.6313 43.523 72.1434 43.523 70.5624 43.616C69.0744 43.709 67.8654 43.709 67.1215 43.709V42.5C68.4234 42.5 69.3534 42.221 69.9114 41.663C70.4694 41.105 70.7483 40.082 70.7483 38.5011V20.9245C70.7483 19.2505 70.4694 18.0416 70.0044 17.2046C69.5394 16.3676 68.5164 15.9956 67.2144 15.9956V14.7866C68.4234 14.8796 69.5394 14.9726 70.6554 14.9726C72.2363 14.9726 73.6313 14.8796 75.0263 14.7866C76.4212 14.6936 77.6302 14.5076 78.7462 14.2287V19.4365C79.2112 18.4136 79.7691 17.4836 80.5131 16.7396C81.2571 15.9026 82.0941 15.2516 83.1171 14.7866C84.0471 14.3217 85.07 14.0427 86.279 14.0427ZM103.391 14.0427C104.972 14.0427 106.366 14.2286 107.482 14.6006C108.691 14.9726 109.528 15.3446 109.993 15.7166C111.295 16.5536 112.039 15.9956 112.318 14.0427H113.527C113.434 15.0656 113.434 16.3676 113.341 17.8556C113.248 19.3435 113.248 21.3895 113.248 23.8074H112.039C111.853 22.4125 111.481 21.1105 111.016 19.7155C110.458 18.4135 109.714 17.2976 108.784 16.4606C107.761 15.6236 106.553 15.1586 104.972 15.1586C103.856 15.1586 103.019 15.4376 102.275 16.0886C101.531 16.7396 101.159 17.5766 101.159 18.6926C101.159 19.8085 101.531 20.7385 102.182 21.6685C102.833 22.5055 103.67 23.3424 104.786 24.0864C105.809 24.8304 106.924 25.6674 108.133 26.5044C109.342 27.4343 110.458 28.3643 111.481 29.2943C112.504 30.2243 113.248 31.1542 113.899 32.2702C114.457 33.3862 114.829 34.5952 114.829 36.0831C114.829 37.7571 114.364 39.2451 113.341 40.454C112.411 41.663 111.109 42.686 109.528 43.337C107.947 43.988 106.18 44.3599 104.228 44.3599C103.112 44.3599 102.089 44.2669 101.252 43.9879C100.415 43.8019 99.5777 43.523 99.0197 43.151C98.5547 42.965 98.0897 42.686 97.6247 42.5C97.1597 42.314 96.7878 42.128 96.4158 41.942C96.0438 41.849 95.6718 41.942 95.4858 42.314C95.2068 42.686 95.0208 43.244 94.8348 43.8949H93.6258C93.7188 42.686 93.7188 41.291 93.8118 39.5241C93.9048 37.7571 93.9048 35.5251 93.9048 32.7352H95.1138C95.2998 34.7812 95.7647 36.5481 96.3227 38.0361C96.8807 39.6171 97.7177 40.826 98.7407 41.663C99.7637 42.5 101.066 42.965 102.647 42.965C103.298 42.965 103.856 42.872 104.507 42.593C105.065 42.314 105.623 41.942 105.995 41.291C106.367 40.733 106.552 39.896 106.552 38.9661C106.552 37.2921 105.995 35.9901 104.972 34.8742C103.949 33.7582 102.554 32.6422 100.973 31.3402C99.7637 30.4103 98.6477 29.3873 97.6247 28.4573C96.6018 27.5274 95.6718 26.5044 95.0208 25.2954C94.3698 24.1794 93.9978 22.8775 93.9978 21.3895C93.9978 19.7155 94.4628 18.3206 95.2998 17.1116C96.2298 15.9956 97.3457 15.0656 98.8337 14.5077C100.136 14.3217 101.717 14.0427 103.391 14.0427ZM125.803 44.0809C124.129 44.0809 122.734 43.802 121.618 43.151C120.502 42.5 119.665 41.663 119.2 40.64C118.642 39.617 118.456 38.4081 118.456 37.1061C118.456 35.5251 118.828 34.2232 119.572 33.2002C120.316 32.1772 121.246 31.3403 122.362 30.7823C123.478 30.1313 124.78 29.6663 125.989 29.2013C127.291 28.8293 128.5 28.3643 129.709 27.9923C130.918 27.6203 131.848 27.1554 132.592 26.5974C133.336 26.0394 133.708 25.3884 133.708 24.5514V20.1805C133.708 19.2505 133.522 18.3206 133.243 17.5766C132.964 16.8326 132.406 16.1816 131.755 15.8096C131.104 15.4376 130.267 15.1586 129.244 15.1586C128.5 15.1586 127.756 15.2516 127.012 15.4376C126.268 15.6236 125.617 15.9956 125.152 16.4606C126.175 16.8326 127.012 17.3906 127.57 18.1346C128.128 18.8786 128.407 19.8085 128.407 20.7385C128.407 22.0405 127.942 22.9705 127.105 23.7144C126.268 24.4584 125.152 24.8304 124.036 24.8304C122.734 24.8304 121.711 24.4584 120.967 23.6214C120.316 22.7845 119.944 21.7615 119.944 20.5525C119.944 19.4365 120.223 18.5995 120.781 17.8556C121.339 17.1116 122.083 16.4606 123.013 15.8096C124.036 15.2516 125.338 14.7866 126.733 14.4147C128.221 14.0427 129.802 13.9497 131.476 13.9497C133.15 13.9497 134.731 14.1357 136.126 14.5077C137.521 14.8797 138.637 15.5306 139.567 16.4606C140.404 17.2976 140.962 18.3206 141.241 19.6225C141.52 20.8315 141.613 22.4125 141.613 24.3654V39.5241C141.613 40.454 141.706 41.105 141.892 41.477C142.078 41.849 142.357 42.035 142.822 42.035C143.194 42.035 143.473 41.942 143.752 41.756C144.031 41.57 144.403 41.384 144.775 41.105L145.333 42.035C144.589 42.686 143.659 43.244 142.636 43.616C141.613 43.9879 140.497 44.1739 139.195 44.1739C137.8 44.1739 136.684 43.9879 135.94 43.616C135.196 43.244 134.545 42.686 134.173 42.035C133.801 41.384 133.615 40.547 133.615 39.71C132.685 41.105 131.662 42.221 130.36 43.058C129.151 43.7089 127.663 44.0809 125.803 44.0809ZM129.802 40.454C130.546 40.454 131.197 40.268 131.848 39.896C132.499 39.5241 133.057 38.9661 133.615 38.1291V26.6903C133.243 27.2483 132.778 27.7133 132.22 28.1783C131.662 28.6433 131.011 29.1083 130.36 29.5733C129.709 30.0383 129.058 30.5033 128.407 31.1543C127.756 31.7122 127.291 32.3632 126.919 33.2002C126.547 34.0372 126.361 34.9672 126.361 36.1761C126.361 37.6641 126.64 38.6871 127.291 39.4311C127.942 40.175 128.686 40.454 129.802 40.454ZM165.885 14.0427C167.094 14.0427 168.024 14.3217 168.768 14.7866C169.512 15.2516 170.07 15.9026 170.442 16.7396C170.814 17.4836 171 18.3206 171 19.1576C171 20.5525 170.628 21.6685 169.791 22.5054C168.954 23.3424 167.931 23.8074 166.629 23.8074C165.327 23.8074 164.304 23.5284 163.56 22.8775C162.816 22.2265 162.444 21.3895 162.444 20.2735C162.444 19.2505 162.63 18.4136 163.188 17.6696C163.653 17.0186 164.211 16.3676 164.955 15.9026C164.397 15.7166 163.932 15.8096 163.374 15.9956C162.63 16.0886 161.979 16.3676 161.328 16.8326C160.677 17.2976 160.119 17.8556 159.747 18.5996C159.282 19.2505 158.91 19.9945 158.724 20.8315C158.445 21.6685 158.352 22.4125 158.352 23.1564V37.9431C158.352 39.71 158.817 40.919 159.654 41.57C160.491 42.221 161.793 42.5 163.56 42.5V43.709C162.723 43.709 161.421 43.616 159.84 43.616C158.166 43.523 156.492 43.523 154.725 43.523C153.237 43.523 151.749 43.523 150.168 43.616C148.681 43.709 147.472 43.709 146.728 43.709V42.5C148.03 42.5 148.959 42.221 149.517 41.663C150.075 41.105 150.354 40.082 150.354 38.5011V20.9245C150.354 19.2505 150.076 18.0416 149.611 17.2046C149.146 16.3676 148.123 15.9956 146.821 15.9956V14.7866C148.03 14.8796 149.145 14.9726 150.261 14.9726C151.842 14.9726 153.237 14.8796 154.632 14.7866C156.027 14.6936 157.236 14.5076 158.352 14.2287V19.4365C158.817 18.4136 159.375 17.4836 160.119 16.7396C160.863 15.9026 161.7 15.2516 162.723 14.7866C163.746 14.3217 164.769 14.0427 165.885 14.0427Z" fill="white"/>
</svg>
