<svg width="75" height="20" viewBox="0 0 75 20" fill="none" xmlns="http://www.w3.org/2000/svg">
<path d="M5.12855 0V18.75C4.71827 18.6679 4.308 18.6679 3.85668 18.75C3.4464 18.832 3.0361 18.9141 2.66685 19.0782C2.29759 19.2423 2.01041 19.4064 1.76424 19.6116L1.39498 19.4064C1.47703 19.1603 1.51806 18.9551 1.51806 18.709C1.55909 18.4628 1.5591 18.2577 1.5591 18.0115V2.91302C1.5591 2.17451 1.436 1.64114 1.23085 1.27188C1.02571 0.902628 0.574398 0.738507 0 0.738507V0.205142C0.53337 0.246171 1.02572 0.287192 1.51806 0.287192C2.17451 0.287192 2.83097 0.246171 3.4464 0.205142C4.06182 0.205142 4.59518 0.123085 5.12855 0ZM8.90318 6.1953C10.1751 6.1953 11.2418 6.72866 12.1034 7.75437C12.965 8.78008 13.3753 10.4212 13.3753 12.5547C13.3753 14.2779 13.1291 15.6318 12.5957 16.6575C12.0624 17.6833 11.4059 18.4218 10.5443 18.9141C9.68272 19.4065 8.73907 19.6116 7.75438 19.6116C7.09793 19.6116 6.44148 19.4885 5.86709 19.2834C5.29269 19.0372 4.80033 18.6679 4.39005 18.1346L4.71827 18.0115C5.00547 18.3807 5.37474 18.6269 5.78502 18.8321C6.19531 18.9962 6.56455 19.1193 6.97483 19.1193C7.87746 19.1193 8.53392 18.6269 8.98524 17.6012C9.43655 16.5755 9.64168 15.0164 9.64168 12.965C9.64168 11.57 9.55964 10.4212 9.39552 9.60065C9.23141 8.78008 8.98524 8.16466 8.65701 7.83643C8.32879 7.46718 7.91849 7.30306 7.46718 7.30306C6.89278 7.30306 6.35942 7.54923 5.9081 8.00055C5.41576 8.45186 5.16959 9.10831 5.08754 9.9699L4.96446 9.10831C5.25165 8.16465 5.744 7.46718 6.48251 6.97483C7.13897 6.44146 7.95952 6.1953 8.90318 6.1953ZM26.6275 6.27735V16.5755C26.6275 17.314 26.7505 17.8474 26.9557 18.2166C27.2019 18.5859 27.6121 18.75 28.1865 18.75V19.2834C27.6942 19.2423 27.1608 19.2013 26.6685 19.2013C25.971 19.2013 25.3556 19.2423 24.7402 19.2834C24.1247 19.3244 23.5914 19.4064 23.058 19.5706V17.355C22.6477 18.1756 22.1143 18.75 21.4168 19.1193C20.7194 19.4885 19.9398 19.6526 19.0782 19.6526C18.3807 19.6526 17.8474 19.5706 17.3961 19.3654C16.9858 19.2013 16.6165 18.9551 16.3704 18.6679C16.0832 18.3397 15.878 17.9294 15.7959 17.4371C15.6729 16.9447 15.6318 16.2883 15.6318 15.4677V9.2314C15.6318 8.49289 15.5088 7.95952 15.3036 7.59026C15.0985 7.221 14.6472 7.05688 14.0728 7.05688V6.52352C14.6061 6.56455 15.0985 6.60558 15.5908 6.60558C16.2883 6.60558 16.9037 6.56455 17.5191 6.52352C18.1346 6.48249 18.6679 6.40043 19.1603 6.27735V16.4524C19.1603 16.8627 19.2013 17.2319 19.2834 17.5191C19.3654 17.8474 19.4885 18.0935 19.7347 18.2577C19.9398 18.4218 20.2681 18.5038 20.6783 18.5038C21.1297 18.5038 21.4989 18.3807 21.8682 18.1346C22.2374 17.8884 22.5246 17.5602 22.7298 17.1089C22.9349 16.6575 23.058 16.2062 23.058 15.6318V9.19037C23.058 8.45186 22.9349 7.91849 22.7298 7.54923C22.5246 7.17997 22.0733 7.01587 21.4989 7.01587V6.52352C22.0323 6.56455 22.5246 6.60558 23.017 6.60558C23.7145 6.60558 24.3299 6.56455 24.9453 6.52352C25.5607 6.48249 26.1351 6.40043 26.6275 6.27735ZM37.6231 6.1953C38.1564 6.1953 38.5667 6.31838 38.895 6.52352C39.2232 6.72866 39.4694 7.01586 39.6335 7.38512C39.7976 7.71335 39.8796 8.0826 39.8796 8.45186C39.8796 9.06729 39.7155 9.55962 39.3463 9.92887C38.977 10.2981 38.5257 10.5033 37.9513 10.5033C37.3769 10.5033 36.9256 10.3802 36.5974 10.093C36.2691 9.8058 36.105 9.43654 36.105 8.94419C36.105 8.49288 36.1871 8.12363 36.4333 7.7954C36.6794 7.46718 36.8846 7.22101 37.2128 7.01587C36.9666 6.93381 36.7615 6.97483 36.5153 7.05688C36.1871 7.09791 35.8999 7.22101 35.6127 7.42615C35.3255 7.63129 35.0793 7.87746 34.9152 8.20569C34.7101 8.49289 34.5459 8.82111 34.4639 9.19037C34.3408 9.55962 34.2998 9.88785 34.2998 10.2161V16.7396C34.2998 17.5191 34.5049 18.0525 34.8742 18.3397C35.2434 18.6269 35.8178 18.75 36.5974 18.75V19.2834C36.2281 19.2834 35.6537 19.2423 34.9562 19.2423C34.2177 19.2013 33.4792 19.2013 32.6997 19.2013C32.0432 19.2013 31.3868 19.2013 30.6893 19.2423C30.0328 19.2834 29.4995 19.2834 29.1712 19.2834V18.75C29.7456 18.75 30.1559 18.6269 30.4021 18.3807C30.6483 18.1346 30.7713 17.6833 30.7713 16.9858V9.2314C30.7713 8.49289 30.6482 7.95952 30.4431 7.59026C30.238 7.221 29.7866 7.05688 29.2122 7.05688V6.52352C29.7456 6.56455 30.238 6.60558 30.7303 6.60558C31.4278 6.60558 32.0432 6.56455 32.6586 6.52352C33.2741 6.48249 33.8074 6.40043 34.2998 6.27735V8.57494C34.5049 8.12363 34.7511 7.71335 35.0793 7.38512C35.4075 7.01586 35.7768 6.72866 36.2281 6.52352C36.6384 6.31838 37.0897 6.1953 37.6231 6.1953ZM45.1723 6.1953C45.8698 6.1953 46.4852 6.27734 46.9776 6.44146C47.5109 6.60557 47.8802 6.76969 48.0853 6.9338C48.6597 7.30306 48.988 7.05689 49.111 6.1953H49.6444C49.6034 6.64661 49.6034 7.221 49.5624 7.87745C49.5213 8.53391 49.5213 9.43654 49.5213 10.5033H48.988C48.9059 9.88786 48.7418 9.31345 48.5367 8.69802C48.2905 8.12362 47.9622 7.63128 47.552 7.26203C47.1007 6.89277 46.5673 6.68763 45.8698 6.68763C45.3775 6.68763 45.0082 6.81072 44.68 7.09791C44.3517 7.38511 44.1876 7.75438 44.1876 8.24672C44.1876 8.73906 44.3518 9.14934 44.639 9.55962C44.9262 9.92888 45.2954 10.2981 45.7877 10.6264C46.2391 10.9546 46.7314 11.3238 47.2648 11.6931C47.7981 12.1034 48.2905 12.5137 48.7418 12.924C49.1931 13.3342 49.5213 13.7445 49.8085 14.2369C50.0547 14.7292 50.2188 15.2626 50.2188 15.919C50.2188 16.6575 50.0137 17.314 49.5624 17.8474C49.1521 18.3807 48.5777 18.8321 47.8802 19.1193C47.1827 19.4065 46.4032 19.5706 45.5416 19.5706C45.0492 19.5706 44.5979 19.5295 44.2287 19.4064C43.8594 19.3244 43.4902 19.2013 43.244 19.0372C43.0388 18.9551 42.8337 18.832 42.6286 18.75C42.4234 18.6679 42.2593 18.5859 42.0952 18.5038C41.9311 18.4628 41.767 18.5038 41.6849 18.6679C41.5618 18.8321 41.4798 19.0782 41.3977 19.3654H40.8643C40.9054 18.832 40.9054 18.2166 40.9464 17.4371C40.9874 16.6575 40.9874 15.6729 40.9874 14.442H41.5208C41.6028 15.3446 41.808 16.1242 42.0541 16.7806C42.3003 17.4781 42.6696 18.0115 43.1209 18.3807C43.5722 18.75 44.1466 18.9551 44.8441 18.9551C45.1313 18.9551 45.3775 18.9141 45.6647 18.791C45.9108 18.6679 46.157 18.5038 46.3211 18.2166C46.4852 17.9705 46.5673 17.6012 46.5673 17.1909C46.5673 16.4524 46.3211 15.878 45.8698 15.3857C45.4185 14.8933 44.8031 14.401 44.1056 13.8266C43.5722 13.4163 43.0799 12.965 42.6286 12.5547C42.1772 12.1444 41.767 11.6931 41.4798 11.1597C41.1926 10.6674 41.0284 10.093 41.0284 9.43654C41.0284 8.69803 41.2336 8.0826 41.6028 7.54923C42.0131 7.05689 42.5055 6.64661 43.1619 6.40044C43.7363 6.31838 44.4338 6.1953 45.1723 6.1953ZM55.0602 19.4475C54.3217 19.4475 53.7062 19.3244 53.2139 19.0372C52.7215 18.75 52.3523 18.3807 52.1472 17.9294C51.901 17.4781 51.8189 16.9447 51.8189 16.3703C51.8189 15.6729 51.983 15.0985 52.3113 14.6471C52.6395 14.1958 53.0498 13.8266 53.5421 13.5804C54.0344 13.2932 54.6089 13.0881 55.1422 12.8829C55.7166 12.7188 56.25 12.5137 56.7834 12.3496C57.3167 12.1854 57.727 11.9803 58.0552 11.7341C58.3835 11.488 58.5476 11.2008 58.5476 10.8315V8.90316C58.5476 8.49288 58.4655 8.0826 58.3424 7.75437C58.2194 7.42614 57.9732 7.13895 57.686 6.97483C57.3988 6.81072 57.0295 6.68763 56.5782 6.68763C56.25 6.68763 55.9218 6.72867 55.5935 6.81072C55.2653 6.89278 54.9781 7.05688 54.773 7.26203C55.2243 7.42614 55.5935 7.67232 55.8397 8.00055C56.0859 8.32877 56.209 8.73905 56.209 9.14934C56.209 9.72373 56.0038 10.134 55.6346 10.4623C55.2653 10.7905 54.773 10.9546 54.2806 10.9546C53.7062 10.9546 53.2549 10.7905 52.9267 10.4212C52.6395 10.052 52.4754 9.60066 52.4754 9.06729C52.4754 8.57495 52.5985 8.20568 52.8446 7.87745C53.0908 7.54922 53.419 7.26203 53.8293 6.97483C54.2806 6.72866 54.855 6.52352 55.4704 6.35941C56.1269 6.19529 56.8244 6.15427 57.5629 6.15427C58.3014 6.15427 58.9989 6.23632 59.6143 6.40044C60.2298 6.56455 60.7221 6.85174 61.1324 7.26203C61.5016 7.63128 61.7478 8.0826 61.8709 8.657C61.994 9.19037 62.035 9.88785 62.035 10.7494V17.4371C62.035 17.8474 62.076 18.1346 62.1581 18.2987C62.2401 18.4628 62.3632 18.5448 62.5684 18.5448C62.7325 18.5448 62.8556 18.5038 62.9786 18.4218C63.1017 18.3397 63.2659 18.2576 63.43 18.1346L63.6761 18.5448C63.3479 18.832 62.9376 19.0782 62.4863 19.2423C62.035 19.4064 61.5427 19.4885 60.9683 19.4885C60.3528 19.4885 59.8605 19.4064 59.5323 19.2423C59.204 19.0782 58.9168 18.832 58.7527 18.5448C58.5886 18.2576 58.5066 17.8884 58.5066 17.5191C58.0963 18.1346 57.645 18.6269 57.0706 18.9962C56.5372 19.2834 55.8807 19.4475 55.0602 19.4475ZM56.8244 17.8474C57.1526 17.8474 57.4398 17.7653 57.727 17.6012C58.0142 17.4371 58.2604 17.1909 58.5066 16.8217V11.7752C58.3424 12.0213 58.1373 12.2265 57.8911 12.4316C57.645 12.6368 57.3578 12.8419 57.0706 13.047C56.7834 13.2522 56.4962 13.4573 56.209 13.7445C55.9218 13.9907 55.7166 14.2779 55.5525 14.6471C55.3884 15.0164 55.3064 15.4267 55.3064 15.9601C55.3064 16.6165 55.4294 17.0678 55.7166 17.3961C56.0038 17.7243 56.332 17.8474 56.8244 17.8474ZM72.7434 6.1953C73.2768 6.1953 73.6871 6.31838 74.0153 6.52352C74.3435 6.72866 74.5897 7.01586 74.7538 7.38512C74.9179 7.71335 75 8.0826 75 8.45186C75 9.06729 74.8359 9.55962 74.4666 9.92887C74.0974 10.2981 73.6461 10.5033 73.0717 10.5033C72.4973 10.5033 72.046 10.3802 71.7177 10.093C71.3895 9.8058 71.2254 9.43654 71.2254 8.94419C71.2254 8.49288 71.3074 8.12363 71.5536 7.7954C71.7587 7.5082 72.0049 7.22101 72.3332 7.01587C72.087 6.93381 71.8818 6.97483 71.6357 7.05688C71.3074 7.09791 71.0202 7.22101 70.733 7.42615C70.4458 7.63129 70.1997 7.87746 70.0355 8.20569C69.8304 8.49289 69.6663 8.82111 69.5842 9.19037C69.4612 9.55962 69.4201 9.88785 69.4201 10.2161V16.7396C69.4201 17.5191 69.6253 18.0525 69.9945 18.3397C70.3638 18.6269 70.9382 18.75 71.7177 18.75V19.2834C71.3485 19.2834 70.7741 19.2423 70.0766 19.2423C69.3381 19.2013 68.5996 19.2013 67.82 19.2013C67.1636 19.2013 66.5071 19.2013 65.8096 19.2423C65.1532 19.2834 64.6198 19.2834 64.2916 19.2834V18.75C64.866 18.75 65.2762 18.6269 65.5224 18.3807C65.7686 18.1346 65.8917 17.6833 65.8917 16.9858V9.2314C65.8917 8.49289 65.7686 7.95952 65.5635 7.59026C65.3583 7.221 64.907 7.05688 64.3326 7.05688V6.52352C64.866 6.56455 65.3583 6.60558 65.8506 6.60558C66.5481 6.60558 67.1636 6.56455 67.779 6.52352C68.3944 6.48249 68.9278 6.40043 69.4201 6.27735V8.57494C69.6253 8.12363 69.8714 7.71335 70.1997 7.38512C70.5279 7.01586 70.8971 6.72866 71.3485 6.52352C71.7998 6.31838 72.2511 6.1953 72.7434 6.1953Z" fill="url(#paint0_linear_241_16)"/>
<path d="M9.03331 1.29097C9.30631 1.29097 9.54956 1.35047 9.76306 1.46947C9.98006 1.58847 10.1498 1.75647 10.2723 1.97347C10.3948 2.19047 10.4561 2.44072 10.4561 2.72422C10.4561 3.00772 10.3948 3.25972 10.2723 3.48022C10.1498 3.69722 9.98006 3.86522 9.76306 3.98422C9.54956 4.10322 9.30631 4.16272 9.03331 4.16272C8.65531 4.16272 8.35606 4.03672 8.13556 3.78472V5.14447H7.47931V1.32247H8.10406V1.68997C8.21256 1.55697 8.34556 1.45722 8.50306 1.39072C8.66406 1.32422 8.84081 1.29097 9.03331 1.29097ZM8.95981 3.60097C9.20131 3.60097 9.39906 3.52047 9.55306 3.35947C9.71056 3.19847 9.78931 2.98672 9.78931 2.72422C9.78931 2.46172 9.71056 2.24997 9.55306 2.08897C9.39906 1.92797 9.20131 1.84747 8.95981 1.84747C8.80231 1.84747 8.66056 1.88422 8.53456 1.95772C8.40856 2.02772 8.30881 2.12922 8.23531 2.26222C8.16181 2.39522 8.12506 2.54922 8.12506 2.72422C8.12506 2.89922 8.16181 3.05322 8.23531 3.18622C8.30881 3.31922 8.40856 3.42247 8.53456 3.49597C8.66056 3.56597 8.80231 3.60097 8.95981 3.60097Z" fill="#6C5CE7"/>
<path d="M12.3384 4.16272C12.0549 4.16272 11.7994 4.10147 11.5719 3.97897C11.3444 3.85647 11.1659 3.68672 11.0364 3.46972C10.9104 3.24922 10.8474 3.00072 10.8474 2.72422C10.8474 2.44772 10.9104 2.20097 11.0364 1.98397C11.1659 1.76697 11.3444 1.59722 11.5719 1.47472C11.7994 1.35222 12.0549 1.29097 12.3384 1.29097C12.6254 1.29097 12.8827 1.35222 13.1102 1.47472C13.3377 1.59722 13.5144 1.76697 13.6404 1.98397C13.7699 2.20097 13.8347 2.44772 13.8347 2.72422C13.8347 3.00072 13.7699 3.24922 13.6404 3.46972C13.5144 3.68672 13.3377 3.85647 13.1102 3.97897C12.8827 4.10147 12.6254 4.16272 12.3384 4.16272ZM12.3384 3.60097C12.5799 3.60097 12.7794 3.52047 12.9369 3.35947C13.0944 3.19847 13.1732 2.98672 13.1732 2.72422C13.1732 2.46172 13.0944 2.24997 12.9369 2.08897C12.7794 1.92797 12.5799 1.84747 12.3384 1.84747C12.0969 1.84747 11.8974 1.92797 11.7399 2.08897C11.5859 2.24997 11.5089 2.46172 11.5089 2.72422C11.5089 2.98672 11.5859 3.19847 11.7399 3.35947C11.8974 3.52047 12.0969 3.60097 12.3384 3.60097Z" fill="#6C5CE7"/>
<path d="M18.7586 1.32247L17.7243 4.12597H17.0943L16.3698 2.19397L15.6348 4.12597H15.0048L13.9758 1.32247H14.5953L15.3356 3.39097L16.1073 1.32247H16.6586L17.4146 3.40147L18.1758 1.32247H18.7586Z" fill="#6C5CE7"/>
<path d="M21.7684 2.73997C21.7684 2.78547 21.7649 2.85022 21.7579 2.93422H19.5581C19.5966 3.14072 19.6964 3.30522 19.8574 3.42772C20.0219 3.54672 20.2249 3.60622 20.4664 3.60622C20.7744 3.60622 21.0281 3.50472 21.2276 3.30172L21.5794 3.70597C21.4534 3.85647 21.2941 3.97022 21.1016 4.04722C20.9091 4.12422 20.6921 4.16272 20.4506 4.16272C20.1426 4.16272 19.8714 4.10147 19.6369 3.97897C19.4024 3.85647 19.2204 3.68672 19.0909 3.46972C18.9649 3.24922 18.9019 3.00072 18.9019 2.72422C18.9019 2.45122 18.9631 2.20622 19.0856 1.98922C19.2116 1.76872 19.3849 1.59722 19.6054 1.47472C19.8259 1.35222 20.0744 1.29097 20.3509 1.29097C20.6239 1.29097 20.8671 1.35222 21.0806 1.47472C21.2976 1.59372 21.4656 1.76347 21.5846 1.98397C21.7071 2.20097 21.7684 2.45297 21.7684 2.73997ZM20.3509 1.81597C20.1409 1.81597 19.9624 1.87897 19.8154 2.00497C19.6719 2.12747 19.5844 2.29197 19.5529 2.49847H21.1436C21.1156 2.29547 21.0299 2.13097 20.8864 2.00497C20.7429 1.87897 20.5644 1.81597 20.3509 1.81597Z" fill="#6C5CE7"/>
<path d="M23.0235 1.73197C23.2125 1.43797 23.545 1.29097 24.021 1.29097V1.91572C23.965 1.90522 23.9142 1.89997 23.8687 1.89997C23.6132 1.89997 23.4137 1.97522 23.2702 2.12572C23.1267 2.27272 23.055 2.48622 23.055 2.76622V4.12597H22.3987V1.32247H23.0235V1.73197Z" fill="#6C5CE7"/>
<path d="M27.1876 2.73997C27.1876 2.78547 27.1841 2.85022 27.1771 2.93422H24.9773C25.0158 3.14072 25.1156 3.30522 25.2766 3.42772C25.4411 3.54672 25.6441 3.60622 25.8856 3.60622C26.1936 3.60622 26.4473 3.50472 26.6468 3.30172L26.9986 3.70597C26.8726 3.85647 26.7133 3.97022 26.5208 4.04722C26.3283 4.12422 26.1113 4.16272 25.8698 4.16272C25.5618 4.16272 25.2906 4.10147 25.0561 3.97897C24.8216 3.85647 24.6396 3.68672 24.5101 3.46972C24.3841 3.24922 24.3211 3.00072 24.3211 2.72422C24.3211 2.45122 24.3823 2.20622 24.5048 1.98922C24.6308 1.76872 24.8041 1.59722 25.0246 1.47472C25.2451 1.35222 25.4936 1.29097 25.7701 1.29097C26.0431 1.29097 26.2863 1.35222 26.4998 1.47472C26.7168 1.59372 26.8848 1.76347 27.0038 1.98397C27.1263 2.20097 27.1876 2.45297 27.1876 2.73997ZM25.7701 1.81597C25.5601 1.81597 25.3816 1.87897 25.2346 2.00497C25.0911 2.12747 25.0036 2.29197 24.9721 2.49847H26.5628C26.5348 2.29547 26.4491 2.13097 26.3056 2.00497C26.1621 1.87897 25.9836 1.81597 25.7701 1.81597Z" fill="#6C5CE7"/>
<path d="M30.5637 0.230469V4.12597H29.9337V3.76372C29.8252 3.89672 29.6904 3.99647 29.5294 4.06297C29.3719 4.12947 29.1969 4.16272 29.0044 4.16272C28.7349 4.16272 28.4917 4.10322 28.2747 3.98422C28.0612 3.86522 27.8932 3.69722 27.7707 3.48022C27.6482 3.25972 27.5869 3.00772 27.5869 2.72422C27.5869 2.44072 27.6482 2.19047 27.7707 1.97347C27.8932 1.75647 28.0612 1.58847 28.2747 1.46947C28.4917 1.35047 28.7349 1.29097 29.0044 1.29097C29.1899 1.29097 29.3597 1.32247 29.5137 1.38547C29.6677 1.44847 29.7989 1.54297 29.9074 1.66897V0.230469H30.5637ZM29.0832 3.60097C29.2407 3.60097 29.3824 3.56597 29.5084 3.49597C29.6344 3.42247 29.7342 3.31922 29.8077 3.18622C29.8812 3.05322 29.9179 2.89922 29.9179 2.72422C29.9179 2.54922 29.8812 2.39522 29.8077 2.26222C29.7342 2.12922 29.6344 2.02772 29.5084 1.95772C29.3824 1.88422 29.2407 1.84747 29.0832 1.84747C28.9257 1.84747 28.7839 1.88422 28.6579 1.95772C28.5319 2.02772 28.4322 2.12922 28.3587 2.26222C28.2852 2.39522 28.2484 2.54922 28.2484 2.72422C28.2484 2.89922 28.2852 3.05322 28.3587 3.18622C28.4322 3.31922 28.5319 3.42247 28.6579 3.49597C28.7839 3.56597 28.9257 3.60097 29.0832 3.60097Z" fill="#6C5CE7"/>
<path d="M34.4271 1.29097C34.7001 1.29097 34.9434 1.35047 35.1569 1.46947C35.3739 1.58847 35.5436 1.75647 35.6661 1.97347C35.7886 2.19047 35.8499 2.44072 35.8499 2.72422C35.8499 3.00772 35.7886 3.25972 35.6661 3.48022C35.5436 3.69722 35.3739 3.86522 35.1569 3.98422C34.9434 4.10322 34.7001 4.16272 34.4271 4.16272C34.2346 4.16272 34.0579 4.12947 33.8969 4.06297C33.7394 3.99647 33.6064 3.89672 33.4979 3.76372V4.12597H32.8731V0.230469H33.5294V1.66372C33.6414 1.54122 33.7726 1.44847 33.9231 1.38547C34.0771 1.32247 34.2451 1.29097 34.4271 1.29097ZM34.3536 3.60097C34.5951 3.60097 34.7929 3.52047 34.9469 3.35947C35.1044 3.19847 35.1831 2.98672 35.1831 2.72422C35.1831 2.46172 35.1044 2.24997 34.9469 2.08897C34.7929 1.92797 34.5951 1.84747 34.3536 1.84747C34.1961 1.84747 34.0544 1.88422 33.9284 1.95772C33.8024 2.02772 33.7026 2.12922 33.6291 2.26222C33.5556 2.39522 33.5189 2.54922 33.5189 2.72422C33.5189 2.89922 33.5556 3.05322 33.6291 3.18622C33.7026 3.31922 33.8024 3.42247 33.9284 3.49597C34.0544 3.56597 34.1961 3.60097 34.3536 3.60097Z" fill="#6C5CE7"/>
<path d="M39.0203 1.32247L37.7078 4.35172C37.5853 4.65622 37.4366 4.86972 37.2616 4.99222C37.0866 5.11822 36.8748 5.18122 36.6263 5.18122C36.4863 5.18122 36.3481 5.15847 36.2116 5.11297C36.0751 5.06747 35.9631 5.00447 35.8756 4.92397L36.1381 4.44097C36.2011 4.50047 36.2746 4.54772 36.3586 4.58272C36.4461 4.61772 36.5336 4.63522 36.6211 4.63522C36.7366 4.63522 36.8311 4.60547 36.9046 4.54597C36.9816 4.48647 37.0516 4.38672 37.1146 4.24672L37.1618 4.13647L35.9386 1.32247H36.6211L37.5031 3.39622L38.3903 1.32247H39.0203Z" fill="#6C5CE7"/>
<defs>
<linearGradient id="paint0_linear_241_16" x1="4.875" y1="19.6526" x2="69.5625" y2="19.6526" gradientUnits="userSpaceOnUse">
<stop stop-color="#7A88FF"/>
<stop offset="0.520833" stop-color="#6C5CE7"/>
<stop offset="1" stop-color="#8A5CE5"/>
</linearGradient>
</defs>
</svg>
